{"accessors":[{"bufferView":0,"byteOffset":0,"componentType":5126,"count":144,"max":[17.5,2.5,17.5],"min":[-17.5,-2.489731,-17.5],"normalized":false,"type":"VEC3"},{"bufferView":1,"byteOffset":0,"componentType":5126,"count":144,"max":[1,0.000065,0.996035,1],"min":[-0.996042,-0.000043,-0.996034,-1],"normalized":false,"type":"VEC4"},{"bufferView":2,"byteOffset":0,"componentType":5126,"count":144,"max":[0.996039,1,0.996036],"min":[-0.996039,-0.000043,-0.996034],"normalized":false,"type":"VEC3"},{"bufferView":3,"byteOffset":0,"componentType":5126,"count":144,"max":[1,0.831622],"min":[0,0],"normalized":false,"type":"VEC2"},{"bufferView":4,"byteOffset":0,"componentType":5125,"count":144,"max":[143],"min":[0],"normalized":false,"type":"SCALAR"},{"bufferView":5,"byteOffset":0,"componentType":5126,"count":216,"max":[18,2.5,18],"min":[-18,-2.5,-18],"normalized":false,"type":"VEC3"},{"bufferView":6,"byteOffset":0,"componentType":5126,"count":216,"max":[1,0.000065,0.996036,1],"min":[-0.996039,-0.000022,-0.996037,-1],"normalized":false,"type":"VEC4"},{"bufferView":7,"byteOffset":0,"componentType":5126,"count":216,"max":[0.996036,1,0.996036],"min":[-0.996039,-1,-0.996034],"normalized":false,"type":"VEC3"},{"bufferView":8,"byteOffset":0,"componentType":5126,"count":216,"max":[1,1],"min":[0,0],"normalized":false,"type":"VEC2"},{"bufferView":9,"byteOffset":0,"componentType":5125,"count":216,"max":[215],"min":[0],"normalized":false,"type":"SCALAR"}],"asset":{"generator":"Godot Engine v4.2.1.stable.official@b09f793f564a6c95dc76acc654b390e68441bd01","version":"2.0"},"bufferViews":[{"buffer":0,"byteLength":1728,"byteOffset":0},{"buffer":0,"byteLength":2304,"byteOffset":1728},{"buffer":0,"byteLength":1728,"byteOffset":4032},{"buffer":0,"byteLength":1152,"byteOffset":5760},{"buffer":0,"byteLength":576,"byteOffset":6912},{"buffer":0,"byteLength":2592,"byteOffset":7488},{"buffer":0,"byteLength":3456,"byteOffset":10080},{"buffer":0,"byteLength":2592,"byteOffset":13536},{"buffer":0,"byteLength":1728,"byteOffset":16128},{"buffer":0,"byteLength":864,"byteOffset":17856}],"buffers":[{"byteLength":18720,"uri":"blockout0.bin"}],"extensionsUsed":["GODOT_single_root"],"materials":[{"extensions":{},"pbrMetallicRoughness":{"baseColorFactor":[0.0176418479532003,0.0975873097777367,0,1],"metallicFactor":0,"roughnessFactor":1}},{"extensions":{},"pbrMetallicRoughness":{"baseColorFactor":[0.99999988079071,0.99999988079071,0.99999988079071,1],"metallicFactor":0,"roughnessFactor":1}}],"meshes":[{"extras":{"targetNames":[]},"primitives":[{"attributes":{"NORMAL":2,"POSITION":0,"TANGENT":1,"TEXCOORD_0":3},"indices":4,"material":0,"mode":4},{"attributes":{"NORMAL":7,"POSITION":5,"TANGENT":6,"TEXCOORD_0":8},"indices":9,"material":1,"mode":4}]}],"nodes":[{"children":[1],"extensions":{},"name":"blockout"},{"children":[2],"extensions":{},"mesh":0,"name":"CSGCombiner3D2"},{"children":[3],"extensions":{},"name":"CSGCylinder3D"},{"extensions":{},"name":"CSGCylinder3D2","translation":[0,0.510268986225128,0]}],"scene":0,"scenes":[{"nodes":[0]}]}