{"accessors":[{"bufferView":0,"byteOffset":0,"componentType":5126,"count":228,"max":[17.5,2.5,17.5],"min":[-17.5,-2.48,-17.5],"normalized":false,"type":"VEC3"},{"bufferView":1,"byteOffset":0,"componentType":5126,"count":228,"max":[1,0.000065,0.998565,1],"min":[-0.996042,-0.000041,-1,-1],"normalized":false,"type":"VEC4"},{"bufferView":2,"byteOffset":0,"componentType":5126,"count":228,"max":[1,1,0.996036],"min":[-0.998566,-0.000043,-0.996037],"normalized":false,"type":"VEC3"},{"bufferView":3,"byteOffset":0,"componentType":5126,"count":228,"max":[1,0.83],"min":[0,0],"normalized":false,"type":"VEC2"},{"bufferView":4,"byteOffset":0,"componentType":5125,"count":228,"max":[227],"min":[0],"normalized":false,"type":"SCALAR"},{"bufferView":5,"byteOffset":0,"componentType":5126,"count":420,"max":[18,2.5,18],"min":[-18,-2.5,-18],"normalized":false,"type":"VEC3"},{"bufferView":6,"byteOffset":0,"componentType":5126,"count":420,"max":[1,0.000299,0.998566,1],"min":[-0.996039,-0.000299,-1,-1],"normalized":false,"type":"VEC4"},{"bufferView":7,"byteOffset":0,"componentType":5126,"count":420,"max":[0.998567,1,0.996036],"min":[-1,-1,-0.996034],"normalized":false,"type":"VEC3"},{"bufferView":8,"byteOffset":0,"componentType":5126,"count":420,"max":[1,1],"min":[0,0],"normalized":false,"type":"VEC2"},{"bufferView":9,"byteOffset":0,"componentType":5125,"count":420,"max":[419],"min":[0],"normalized":false,"type":"SCALAR"}],"asset":{"generator":"Godot Engine v4.2.1.stable.official@b09f793f564a6c95dc76acc654b390e68441bd01","version":"2.0"},"bufferViews":[{"buffer":0,"byteLength":2736,"byteOffset":0},{"buffer":0,"byteLength":3648,"byteOffset":2736},{"buffer":0,"byteLength":2736,"byteOffset":6384},{"buffer":0,"byteLength":1824,"byteOffset":9120},{"buffer":0,"byteLength":912,"byteOffset":10944},{"buffer":0,"byteLength":5040,"byteOffset":11856},{"buffer":0,"byteLength":6720,"byteOffset":16896},{"buffer":0,"byteLength":5040,"byteOffset":23616},{"buffer":0,"byteLength":3360,"byteOffset":28656},{"buffer":0,"byteLength":1680,"byteOffset":32016}],"buffers":[{"byteLength":33696,"uri":"blockout0.bin"}],"extensionsUsed":["GODOT_single_root"],"materials":[{"extensions":{},"pbrMetallicRoughness":{"baseColorFactor":[0.0176418479532003,0.0975873097777367,0,1],"metallicFactor":0,"roughnessFactor":1}},{"extensions":{},"pbrMetallicRoughness":{"baseColorFactor":[0.99999988079071,0.99999988079071,0.99999988079071,1],"metallicFactor":0,"roughnessFactor":1}}],"meshes":[{"extras":{"targetNames":[]},"primitives":[{"attributes":{"NORMAL":2,"POSITION":0,"TANGENT":1,"TEXCOORD_0":3},"indices":4,"material":0,"mode":4},{"attributes":{"NORMAL":7,"POSITION":5,"TANGENT":6,"TEXCOORD_0":8},"indices":9,"material":1,"mode":4}]}],"nodes":[{"children":[1],"extensions":{},"name":"blockout"},{"children":[2],"extensions":{},"mesh":0,"name":"CSGCombiner3D2"},{"children":[3,4,5],"extensions":{},"name":"CSGCylinder3D"},{"extensions":{},"name":"CSGCylinder3D2","translation":[0,0.519999980926514,0]},{"extensions":{},"name":"CSGBox3D","rotation":[0,-0.13052615523338,0,0.991444885730743],"translation":[-16.639799118042,-0.95616847276688,-4.45863008499146]},{"extensions":{},"name":"CSGBox3D2","rotation":[0,-0.13052615523338,0,0.991444885730743],"translation":[16.5631008148193,-0.95616847276688,4.43805980682373]}],"scene":0,"scenes":[{"nodes":[0]}]}